<svg xmlns="http://www.w3.org/2000/svg" width="17" height="20" fill="none"><path fill="#0B0B0A" fill-rule="evenodd" d="M12.01.4a4.12 4.12 0 0 1-.9 3.04 3.71 3.71 0 0 1-2.88 1.47c-.2-1.1.31-2.21.93-2.97A4.4 4.4 0 0 1 12.01.4Zm3.28 16.01c.56-.86.77-1.3 1.21-2.27-3.18-1.2-3.69-5.72-.54-7.46a4.74 4.74 0 0 0-3.58-1.9c-.92 0-1.55.24-2.12.46-.47.18-.9.35-1.44.35-.57 0-1.08-.18-1.61-.37C6.62 5 6 4.79 5.25 4.79c-1.43 0-2.95.87-3.91 2.36-1.35 2.1-1.12 6.05 1.07 9.41.79 1.2 1.84 2.56 3.2 2.57.58 0 .96-.16 1.37-.35.47-.2.98-.44 1.86-.44.89 0 1.39.23 1.85.44.4.18.77.35 1.34.35 1.37-.01 2.48-1.51 3.26-2.72Z" clip-rule="evenodd"/></svg>