<svg xmlns="http://www.w3.org/2000/svg" width="32" height="32" fill="none"><path fill="#EA4335" d="M16 6.19c3 0 5.03 1.3 6.19 2.38l4.51-4.41A15.37 15.37 0 0 0 16 0C9.74 0 4.34 3.6 1.7 8.82l5.18 4.02A9.67 9.67 0 0 1 16 6.19Z"/><path fill="#4285F4" d="M31.36 16.36c0-1.32-.1-2.28-.34-3.28H16v5.94h8.82a7.82 7.82 0 0 1-3.27 5.2l5.05 3.9c3.02-2.79 4.76-6.9 4.76-11.76Z"/><path fill="#FBBC05" d="M6.9 19.16a9.85 9.85 0 0 1-.02-6.32L1.7 8.82a16.01 16.01 0 0 0 0 14.36l5.19-4.02Z"/><path fill="#34A853" d="M16 32c4.32 0 7.95-1.42 10.6-3.87l-5.05-3.92a9.47 9.47 0 0 1-5.55 1.6 9.63 9.63 0 0 1-9.1-6.64l-5.17 4.01A15.96 15.96 0 0 0 16 32Z"/></svg>